<svg xmlns="http://www.w3.org/2000/svg" width="300" height="300" viewBox="0 0 300 300"><rect width="100%" height="100%" fill="#DDDDDD"/><path fill="#999999" d="M81.25 138.27v24.88h-4.97v-10.34H66.13v10.34h-4.99v-24.88h4.99v10.7h10.15v-10.7zm12.45 25.24q-4 0-6.4-2.56-2.39-2.57-2.39-6.52v-.68q0-4.12 2.27-6.78 2.26-2.67 6.07-2.65 3.74 0 5.81 2.25 2.07 2.26 2.07 6.1v2.72H90.09l-.03.1q.13 1.83 1.22 3.01 1.08 1.18 2.95 1.18 1.65 0 2.75-.33 1.09-.34 2.39-1.05l1.35 3.07q-1.13.93-2.96 1.53-1.83.61-4.06.61m-.45-15.35q-1.38 0-2.19 1.06-.8 1.06-.99 2.79l.05.08h6.12v-.44q0-1.59-.74-2.54t-2.25-.95m16.03-11.67v26.66h-4.99v-26.66zm9.35 0v26.66h-4.99v-26.66zm3.33 17.6v-.36q0-4.13 2.31-6.77t6.39-2.64q4.1 0 6.43 2.63 2.32 2.63 2.32 6.78v.36q0 4.17-2.31 6.8-2.32 2.62-6.4 2.62-4.11 0-6.42-2.62-2.32-2.63-2.32-6.8m4.98-.36v.36q0 2.53.88 4.06.89 1.53 2.88 1.53 1.93 0 2.82-1.54.9-1.54.9-4.05v-.36q0-2.46-.91-4.01-.9-1.56-2.85-1.56-1.93 0-2.83 1.57-.89 1.56-.89 4m39.66-15.46 4.7 17.05h.1l3.56-17.05h4.87l-5.81 24.88h-4.63l-4.57-16.42h-.1l-4.56 16.42h-4.63l-5.83-24.88h4.89l3.57 17.04.1.01 4.67-17.05zm14.24 15.82v-.36q0-4.13 2.3-6.77 2.31-2.64 6.4-2.64 4.1 0 6.42 2.63 2.33 2.63 2.33 6.78v.36q0 4.17-2.32 6.8-2.32 2.62-6.4 2.62-4.1 0-6.42-2.62-2.31-2.63-2.31-6.8m4.97-.36v.36q0 2.53.89 4.06t2.87 1.53q1.93 0 2.83-1.54t.9-4.05v-.36q0-2.46-.91-4.01-.91-1.56-2.85-1.56t-2.83 1.57q-.9 1.56-.9 4m25.81-9.21-.53 4.43-1.83-.05q-1.11 0-1.83.46t-1.1 1.3v12.49h-4.97v-18.49h4.63l.23 2.73q.64-1.45 1.68-2.26 1.03-.81 2.38-.81.38 0 .69.06.32.06.65.14m7.24-8.03v26.66h-4.99v-26.66zm3.33 17.93v-.36q0-4.38 1.89-7.06t5.33-2.68q1.38 0 2.49.6 1.11.59 1.95 1.7v-10.13h5.01v26.66h-4.29l-.41-2.26q-.87 1.29-2.06 1.95-1.19.67-2.73.67-3.4 0-5.29-2.5-1.89-2.49-1.89-6.59m4.98-.36v.36q0 2.42.82 3.82.82 1.39 2.66 1.39 1.08 0 1.88-.44.81-.43 1.32-1.27v-7.88q-.51-.87-1.31-1.36-.79-.48-1.85-.48-1.83 0-2.68 1.62-.84 1.62-.84 4.24"/></svg>